<?xml version="1.0" encoding="utf-8"?>
<!-- Generator: Adobe Illustrator 19.0.1, SVG Export Plug-In . SVG Version: 6.00 Build 0)  -->
<!DOCTYPE svg PUBLIC "-//W3C//DTD SVG 1.1//EN" "http://www.w3.org/Graphics/SVG/1.1/DTD/svg11.dtd">
<svg version="1.1" id="Layer_1" xmlns:sketch="http://www.bohemiancoding.com/sketch/ns"
	 xmlns="http://www.w3.org/2000/svg" xmlns:xlink="http://www.w3.org/1999/xlink" x="0px" y="0px" viewBox="21.6 33.3 90.7 60.5"
	 style="enable-background:new 21.6 33.3 90.7 60.5;" xml:space="preserve">
<style type="text/css">
	.st0{fill:#346DA6;}
	.st1{fill:#FFFFFF;}
	.st2{fill:#CA4638;}
</style>
<title></title>
<g id="Asia-Pacific">
	<g id="Australia" transform="translate(-1000.000000, -1.000000)">
		<g transform="translate(1000.000000, 0.000000)">
			<rect id="rect962-copy" x="21.6" y="34.3" class="st0" width="90.7" height="60.5"/>
			<path id="White_Diagonal" class="st1" d="M32.4,44.9l-10.8-7.2v-3.4h5.1L39.8,43l0,0v-8.7h9.1V43l13.1-8.7H67v3.4l-10.8,7.2H67
				V54H56.2L67,61.2v3.4h-5.1l-13.1-8.7v9.2h-9.1v-9.2l-13.1,8.7h-5.1v-3.4L32.4,54H21.6v-9.1H32.4z"/>
			<path id="Red_Diagonals-copy" class="st2" d="M51.4,54h3L67,62.5v2L51.4,54z M24.7,64.6L39.8,54h-3L21.6,64.6H24.7z M64,34.3
				L48.9,44.9h3L67,34.3H64z M37.3,44.9h-3l-12.6-8.6v-2L37.3,44.9z M47.3,34.3v12.1H67v6H47.3v12.1h-6V52.5H21.6v-6h19.7V34.3H47.3
				z"/>
			<path id="Star7" class="st1" d="M86.6,39.2l3-1.1l-1.8,2.5l2.8,1.5l-3.2,0.3l0.4,3l-2.2-2.2l-2.2,2.2l0.4-3l-3.2-0.3l2.8-1.5
				l-1.8-2.5l3,1.1l1-2.9L86.6,39.2z"/>
			<path id="Star7_1_" class="st1" d="M98.7,55.5l1,2.9l3-1.1l-1.8,2.5l2.8,1.5l-3.2,0.3l0.4,3l-2.2-2.2l-2.2,2.2l0.4-3l-3.2-0.3
				l2.8-1.5l-1.8-2.5l3,1.1L98.7,55.5L98.7,55.5z"/>
			<path id="Star7_2_" class="st1" d="M75.1,50.4l1,2.9l3-1.1l-1.8,2.5l2.8,1.5l-3.2,0.3l0.4,3l-2.2-2.2l-2.2,2.2l0.4-3L70,56.3
				l2.8-1.5L71,52.2l3,1.1L75.1,50.4L75.1,50.4z"/>
			<path id="Star7_3_" class="st1" d="M85.6,80.7l1,2.9l3-1.1L87.9,85l2.8,1.5l-3.2,0.3l0.4,3l-2.2-2.2l-2.2,2.2l0.4-3l-3.2-0.3
				l2.8-1.5l-1.8-2.5l3,1.1L85.6,80.7L85.6,80.7z"/>
			<path id="Star7_4_" class="st1" d="M48.4,70.6l2.1,6l6.4-2.2l-3.8,5.3l5.9,3.2l-6.8,0.5l0.9,6.3l-4.7-4.6l-4.7,4.6l0.9-6.3
				l-6.8-0.5l5.9-3.2l-3.8-5.3l6.4,2.2L48.4,70.6L48.4,70.6z"/>
			<path id="polygon5131" class="st1" d="M88.9,68.1l0.6,1.8h2.1L90,70.9l0.6,1.7l-1.7-1.1l-1.7,1l0.6-1.7l-1.7-1.1h2.1L88.9,68.1
				L88.9,68.1z"/>
		</g>
	</g>
</g>
</svg>
