<?xml version="1.0" standalone="no"?>
<!DOCTYPE svg PUBLIC "-//W3C//DTD SVG 1.1//EN" "http://www.w3.org/Graphics/SVG/1.1/DTD/svg11.dtd" >
<svg xmlns="http://www.w3.org/2000/svg">
<metadata>Generated by IcoMoon</metadata>
<defs>
<font id="icomoon" horiz-adv-x="1024">
<font-face units-per-em="1024" ascent="960" descent="-64" />
<missing-glyph horiz-adv-x="1024" />
<glyph unicode="&#x20;" d="" horiz-adv-x="512" />
<glyph unicode="&#xe600;" d="M621.254 82.746l320 320c24.994 24.992 24.994 65.516 0 90.51l-320 320c-24.994 24.992-65.516 24.992-90.51 0-24.994-24.994-24.994-65.516 0-90.51l210.746-210.746h-613.49c-35.346 0-64-28.654-64-64s28.654-64 64-64h613.49l-210.746-210.746c-12.496-12.496-18.744-28.876-18.744-45.254s6.248-32.758 18.744-45.254c24.994-24.994 65.516-24.994 90.51 0z" />
<glyph unicode="&#xe601;" d="M402.746 813.254l-320-320c-24.994-24.992-24.994-65.516 0-90.508l320-320c24.994-24.992 65.516-24.992 90.51 0 24.996 24.992 24.996 65.516 0 90.508l-210.748 210.746h613.492c35.346 0 64 28.652 64 64 0 35.346-28.654 64-64 64h-613.492l210.746 210.746c12.496 12.496 18.746 28.876 18.746 45.254s-6.248 32.758-18.744 45.254c-24.996 24.994-65.516 24.994-90.51 0z" />
<glyph unicode="&#xe602;" d="M992.262 88.604l-242.552 206.294c-25.074 22.566-51.89 32.926-73.552 31.926 57.256 67.068 91.842 154.078 91.842 249.176 0 212.078-171.922 384-384 384-212.076 0-384-171.922-384-384 0-212.078 171.922-384 384-384 95.098 0 182.108 34.586 249.176 91.844-1-21.662 9.36-48.478 31.926-73.552l206.294-242.552c35.322-39.246 93.022-42.554 128.22-7.356s31.892 92.898-7.354 128.22zM384 320c-141.384 0-256 114.616-256 256s114.616 256 256 256 256-114.616 256-256-114.614-256-256-256zM448 768h-128v-128h-128v-128h128v-128h128v128h128v128h-128z" />
<glyph unicode="&#xe603;" d="M992.262 88.604l-242.552 206.294c-25.074 22.566-51.89 32.926-73.552 31.926 57.256 67.068 91.842 154.078 91.842 249.176 0 212.078-171.922 384-384 384-212.076 0-384-171.922-384-384 0-212.078 171.922-384 384-384 95.098 0 182.108 34.586 249.176 91.844-1-21.662 9.36-48.478 31.926-73.552l206.294-242.552c35.322-39.246 93.022-42.554 128.22-7.356s31.892 92.898-7.354 128.22zM384 320c-141.384 0-256 114.616-256 256s114.616 256 256 256 256-114.616 256-256-114.614-256-256-256zM192 640h384v-128h-384z" />
<glyph unicode="&#xe604;" d="M958.403 945.623l-238.524-548.407c-11.35-23.689-22.234-117.225-22.234-117.225h-33.235l-7.217 119.96c0 0-54.072 249.699-89.054 411.218-31.023 135.792-52.268 134.395-126.596 134.395-152.148 0-441.601-1.048-441.601-1.048s0-10.069 0-33.351c131.951 0 271.352-88.646 313.376-249.932 70.079-294.343 169.376-711.847 169.376-711.847h297.078l460.751 996.12-282.119 0.116zM1336.037 945.623l-210.469-996.062h270.42l210.469 996.062h-270.42zM2074.076 530.040c-42.722 32.304-71.65 58.030-86.842 77.413-15.25 19.382-22.875 40.103-22.875 62.338 0 24.504 7.799 43.13 23.457 55.819 15.657 12.747 38.008 19.091 67.11 19.091 54.48 0 120.601-19.964 198.246-60.009l92.022 202.437c-86.667 48.543-184.335 72.873-292.887 72.873-67.227 0-127.993-13.213-182.24-39.23-54.305-26.134-96.271-62.92-126.014-110.415-29.743-47.437-44.643-100.927-44.643-160.355 0-53.199 11.99-102.033 36.145-146.56 23.98-44.469 62.629-88.122 115.828-130.845 43.654-36.378 70.312-59.893 80.381-70.486 9.953-10.652 17.636-21.361 23.049-31.955 5.471-10.652 8.207-22.234 8.207-34.399 0-25.843-8.673-45.924-25.843-59.951-17.287-14.144-42.722-21.187-76.365-21.187-39.929 0-84.514 8.149-133.813 24.562-49.3 16.414-93.012 36.553-131.136 60.65v-238.524c32.246-21.361 70.603-37.542 115.188-48.718 44.527-11.059 91.789-16.647 141.729-16.647 119.437 0 212.565 27.997 279.384 84.106 66.703 56.051 100.113 134.628 100.113 235.439 0 56.284-12.922 106.224-38.823 149.878-26.018 43.596-65.772 85.212-119.378 124.675zM3098.134 945.623h-342.769l-506.907-996.062h276.648l85.096 186.605h305.285l6.868-186.605h259.594l-83.815 996.062zM2707.753 348.79l147.782 323.62c16.821 36.32 30.732 73.979 41.617 113.15-1.746-25.494-2.794-55.237-2.794-89.228l1.397-58.554 11.583-288.929-199.585-0.058z" horiz-adv-x="3182" />
<glyph unicode="&#xe605;" d="M512 960c-282.77 0-512-229.23-512-512s229.23-512 512-512 512 229.23 512 512-229.23 512-512 512zM512 64c-212.078 0-384 171.922-384 384s171.922 384 384 384c212.078 0 384-171.922 384-384 0-212.078-171.922-384-384-384zM320 448c0 106.039 85.961 192 192 192s192-85.961 192-192c0-106.039-85.961-192-192-192-106.039 0-192 85.961-192 192z" />
<glyph unicode="&#xe606;" d="M512 960c-282.77 0-512-229.23-512-512s229.23-512 512-512 512 229.23 512 512-229.23 512-512 512zM512 64c-212.078 0-384 171.922-384 384s171.922 384 384 384c212.078 0 384-171.922 384-384 0-212.078-171.922-384-384-384z" />
<glyph unicode="&#xe607;" d="M891.96 445.796c-18.086 0-35.348-3.52-51.064-9.856-10.506 114.358-110.29 204.060-232 204.060-29.786 0-58.682-5.63-84.318-15.164-9.96-3.702-12.578-7.52-12.578-14.916v-402.714c0-7.766 6.24-14.234 14.124-14.996 0.336-0.034 363.536-0.21 365.89-0.21 72.904 0 131.986 56.816 131.986 126.894s-59.134 126.902-132.040 126.902zM400 192h32l16 224.22-16 223.78h-32l-16-223.78zM304 192h-32l-16 162.75 16 157.25h32l16-160zM144 192h32l16 128-16 128h-32l-16-128zM16 256h32l16 64-16 64h-32l-16-64z" />
<glyph unicode="&#xe608;" d="M766.263-63.96c-1.917 0-3.793 0.040-5.75 0.16-59.493 3.154-105.211 54.143-102.057 113.955 20.723 398.244-293.872 576.484-297.066 578.201-52.226 28.788-71.352 94.75-42.723 147.255 28.629 52.546 94.191 71.791 146.417 43.003 17.808-9.822 436.496-246.996 408.746-779.799-2.995-57.856-50.669-102.775-107.567-102.775zM398.564 63.691c-0.279 0-0.479 0-0.759 0-57.537 0-103.973 42.484-103.574 100.1 1.517 230.745-237.413 361.231-239.849 362.549-50.589 27.55-69.196 89.679-41.645 140.228 27.511 50.589 90.797 68.637 141.466 41.046 14.294-7.786 350.929-190.777 348.574-544.941-0.359-57.297-46.996-98.982-104.213-98.982zM764.666-64c-15.293 0-30.785 3.234-45.558 10.022-54.861 25.195-78.858 90.078-53.664 144.86 174.247 379.039 8.225 706.091 6.548 709.365-27.87 53.464-7.107 119.465 46.397 147.335 53.504 27.91 119.505 7.107 147.335-46.437 8.984-17.169 216.691-426.354-1.757-901.5-18.407-40.048-57.936-63.646-99.302-63.646zM398.444 53.988c-20.723 0-41.645 6.109-59.892 18.926-47.115 33.14-58.455 98.144-25.354 145.299 130.925 186.345 1.757 462.249 0.399 464.965-25.354 51.707-4.033 114.155 47.634 139.549 51.707 25.394 114.195 4.033 139.549-47.634 7.706-15.732 186.265-387.504-16.97-676.744-20.244-28.948-52.586-44.36-85.367-44.36zM2911.808 540.913c18.367-15.213 56.818-47.195 56.818-108.046 0-59.134-33.66-87.163-67.239-113.556-10.461-10.381-22.44-21.641-22.44-39.21 0-17.568 12.018-27.191 20.882-34.378l28.788-22.36c35.137-29.587 67.159-56.818 67.159-112.039 0-75.185-72.789-151.208-210.382-151.208-116.071 0-172.051 55.181-172.051 114.394 0 28.828 14.374 69.555 61.649 97.665 49.471 30.345 116.75 34.338 152.766 36.774-11.22 14.374-24.037 29.547-24.037 54.302 0 13.616 4.113 21.641 8.026 31.264-8.864-0.799-17.648-1.637-25.674-1.637-84.728 0-132.722 63.206-132.722 125.614 0 36.774 16.85 77.621 51.228 107.207 45.558 37.572 99.9 44.001 143.223 44.001h164.704l-51.188-28.788h-49.511zM2854.91 185.711c-6.349 0.838-10.381 0.838-18.287 0.838-7.307 0-50.509-1.677-84.049-12.817-17.568-6.389-68.796-25.634-68.796-82.412 0-56.818 55.301-97.625 140.787-97.625 76.822 0 117.629 36.894 117.629 86.405 0.040 40.887-26.353 62.368-87.283 105.61zM2878.228 337.718c18.367 18.407 19.884 44.041 19.884 58.375 0 57.616-34.378 147.255-100.659 147.255-20.843 0-43.242-10.421-56.139-26.472-13.496-16.77-17.489-38.331-17.489-59.214 0-53.544 31.184-142.344 100.060-142.344 19.884 0 41.446 9.583 54.342 22.4zM2408.193 198.528c-126.972 0-194.93 98.982-194.93 188.501 0 104.652 85.486 194.091 206.908 194.091 117.349 0 190.857-91.835 190.857-188.541 0-94.191-72.59-194.051-202.836-194.051zM2508.054 263.212c19.086 25.554 23.957 57.497 23.957 88.641 0 70.314-33.54 204.433-132.562 204.433-26.393 0-52.665-10.381-71.911-27.111-31.144-27.99-36.654-63.087-36.654-97.465 0-79.018 39.090-209.184 135.676-209.184 31.184-0.040 63.087 15.133 81.494 40.687zM1975.291 198.528c-127.012 0-194.93 98.982-194.93 188.501 0 104.652 85.526 194.091 206.908 194.091 117.349 0 190.897-91.835 190.897-188.541 0-94.191-72.709-194.051-202.875-194.051zM2075.072 263.212c19.166 25.554 24.037 57.497 24.037 88.641 0 70.314-33.66 204.433-132.602 204.433-26.353 0-52.705-10.381-71.831-27.111-31.184-27.99-36.814-63.087-36.814-97.465 0-79.018 39.17-209.224 135.836-209.184 31.144-0.040 63.047 15.133 81.374 40.687zM1719.391 211.026l-114.874-26.512c-46.556-7.227-88.281-13.616-132.402-13.616-221.682 0-305.97 163.027-305.97 290.718 0 155.76 119.665 300.26 324.417 300.26 43.402 0 85.127-6.389 122.779-16.85 60.292-16.89 88.361-37.772 106.049-49.791l-66.72-63.406-28.070-6.468 20.164 32.182c-27.391 26.472-77.221 75.464-171.891 75.464-126.932 0-222.44-96.427-222.44-236.934 0-150.929 109.204-293.033 284.209-293.033 51.468 0 77.98 10.381 102.017 20.084v129.248l-121.222-6.389 64.205 34.538h170.294l-20.843-20.044c-5.71-4.831-6.468-6.468-8.105-12.857-0.838-7.227-1.557-30.545-1.557-38.571v-98.024zM3165.632 234.144c-26.552 2.396-32.182 7.187-32.182 38.531v8.904 445.639c0.16 1.717 0.319 3.474 0.519 5.151 3.194 28.070 11.26 32.941 36.095 47.395h-114.794l-60.252-28.908h61.33v-0.359 0.279-469.157-26.552c0-16.011-3.154-18.447-21.681-42.484h142.145l29.707 17.648c-13.616 1.517-27.271 2.356-40.887 3.913zM3492.285 226.758c-8.704-4.751-17.489-10.381-26.193-14.294-26.393-11.978-53.504-15.133-77.381-15.133-25.514 0-65.363 1.597-106.049 31.064-56.618 39.888-81.374 108.485-81.374 168.298 0 123.618 100.499 184.189 182.592 184.189 28.748 0 58.335-7.147 82.252-22.32 39.808-26.233 50.15-60.531 55.74-78.938l-187.383-75.784-61.37-4.791c19.844-101.258 88.481-160.272 164.225-160.272 40.687 0 70.194 14.294 97.345 27.91l-42.404-39.928zM3417.38 464.451c15.133 5.55 23.118 10.301 23.118 21.481 0 31.903-35.896 68.637-78.978 68.637-31.903 0-91.715-24.756-91.715-110.881 0-13.576 1.597-27.91 2.436-42.284l145.139 63.047zM3809.116 536.801l35.097-163.107c7.027-35.776 14.015-68.996 18.926-102.176h1.637c5.909 32.542 14.494 67 23.158 101.498l42.564 163.786h39.968l40.367-160.472c9.782-38.451 17.249-72.27 23.118-104.812h1.677c4.352 32.542 11.3 66.361 19.964 104.173l37.213 161.111h46.996l-84.169-320.983h-43.083l-39.968 153.165c-9.144 35.816-16.73 67.638-23.158 105.451h-1.038c-6.428-38.411-14.574-71.551-23.757-106.049l-42.005-152.566h-43.083l-78.818 320.983h48.393zM4405.165 292.919c0-27.83 1.238-55.021 4.113-76.982h-47.115l-4.153 40.567h-1.837c-16.091-25.235-47.155-47.834-88.281-47.834-58.495 0-88.241 45.798-88.241 92.274 0 77.581 61.969 120.024 173.528 119.385v6.628c0 25.874-6.508 74.267-65.562 73.628-27.471 0-55.5-8.585-75.784-23.837l-12.018 39.090c23.997 16.57 59.094 27.87 95.548 27.87 88.321 0 109.803-67 109.803-130.685v-120.104zM4354.416 379.843c-57.217 1.278-122.26-9.982-122.26-72.31 0-38.491 22.599-55.74 48.832-55.74 38.291 0 62.727 26.552 71.072 53.743 1.717 6.588 2.356 13.296 2.356 18.607v55.7zM4482.067 677.188h47.515v-461.331h-47.515v461.331zM4590.751 677.188h47.395v-461.331h-47.395v461.331zM4728.384 365.908c1.158-78.938 43.961-111.4 94.71-111.4 35.816 0 58.056 7.267 76.383 16.57l9.104-41.805c-17.728-9.223-48.513-20.563-92.314-20.563-84.967 0-135.716 65.642-135.716 162.508 0 96.866 49.072 172.53 129.527 172.53 90.597 0 113.915-91.555 113.915-150.569 0-11.978-0.599-20.563-1.717-27.231h-193.892zM4875.48 407.673c0.599 36.494-13.096 94.231-69.475 94.231-51.348 0-72.989-53.743-77.062-94.231h146.537zM5029.203 651.554v-114.235h65.363v-44.52h-65.363v-173.249c0-39.848 8.744-62.408 34.298-62.408 12.458 0 19.645 1.358 26.353 3.953l2.076-44.44c-8.784-4.033-22.839-7.986-40.447-7.986-21.322 0-38.451 9.303-49.271 24.596-12.458 17.928-17.648 46.476-17.648 84.289v175.245h-38.97v44.52h38.97v96.986l44.64 17.249z" horiz-adv-x="5095" />
<glyph unicode="&#xe609;" d="M0-13.936v956.496h206.793c98.959 0 177.363-9.499 234.9-28.418 61.586-18.53 117.723-50.297 167.786-94.832 101.684-90.005 152.37-208.35 152.37-354.959 0-147.075-52.633-266.044-158.754-356.905-53.178-45.47-108.769-77.002-167.085-94.754-54.579-17.83-131.659-26.628-231.708-26.628h-204.302zM173.469 133.217h59.718c59.484 0 108.925 6.54 148.477 19.309 39.474 13.703 75.056 35.426 106.822 64.856 65.246 61.119 97.791 140.847 97.791 239.027 0 98.959-32.156 179.231-96.623 240.818-58.083 54.891-143.494 82.453-256.467 82.453h-59.718v-646.462zM1787.64 828.808l-97.791-101.528c-22.657 39.085-63.221 64.389-85.411 71.864-26.005 8.72-57.46 16.973-91.017 16.973-41.109 0-75.212-11.679-102.384-35.036-27.095-22.968-40.72-51.854-40.72-86.657 0-47.961 35.737-86.501 106.9-115.932l97.946-40.097c79.883-32.311 138.2-71.63 175.027-118.19 36.983-46.482 55.436-103.474 55.436-170.9 0-90.55-30.209-165.217-90.394-224.311-60.652-59.406-136.019-89.148-225.869-89.148-85.333 0-155.718 25.382-211.231 76.146-54.891 50.608-76.068 89.927-105.966 148.944l114.141 65.090c16.117-22.579 52.788-70.462 75.056-87.202 37.606-28.263 86.345-48.584 131.659-48.039 46.092 0.389 85.723 9.81 116.399 40.876 30.521 30.832 46.637 60.029 46.637 107.601 0 19.075-2.647 36.438-7.942 52.399-5.372 16.039-13.625 30.599-24.915 43.912-11.134 13.392-25.771 25.849-43.445 37.45-17.83 11.835-39.085 22.813-63.689 33.479l-94.91 39.397c-134.462 56.759-201.577 139.912-201.577 249.304 0 73.81 28.029 135.474 84.399 185.071 56.526 50.063 126.676 75.056 210.686 75.056 113.285 0.156 193.713-34.881 272.973-126.521zM2666.121 886.735v-172.769c-84.633 70.618-172.457 105.888-263.163 105.888-99.737 0-183.825-35.737-252.185-107.212-68.905-71.085-103.241-158.054-103.241-260.749 0-101.528 34.336-187.251 103.241-257.012 68.749-69.995 152.993-104.798 252.964-104.798 51.62 0 95.299 8.331 131.426 25.148 20.165 8.331 41.032 19.543 62.676 33.713 21.645 14.326 44.302 31.377 68.282 51.543v-176.506c-84.088-47.416-172.068-71.241-264.409-71.241-138.745 0-257.324 48.35-355.426 144.895-97.791 97.401-146.686 214.813-146.686 352.311 0 123.251 40.876 233.265 122.706 329.966 100.749 118.19 231.163 177.363 390.852 177.363 87.124 0 171.523-23.513 252.964-70.54zM2721.635 451.504c0 138.433 50.686 257.012 152.136 356.438 100.905 99.192 222.209 148.788 363.99 148.788 140.068 0 259.971-50.063 360.253-150.19 100.36-100.049 150.657-220.496 150.657-360.876 0-141.236-50.375-261.061-151.28-359.552-101.528-98.881-224-148.321-367.182-148.321-126.988 0-240.818 43.912-341.8 131.737-111.26 97.324-166.774 224.467-166.774 381.976zM3923.854 960.001l271.805-680.876 275.543 680.876h162.258l-391.942-1002.745h-85.411l-394.511 1002.745h162.258zM5305.070 793.46h-393.888v-236.068h352.701v-139.367h-352.701v-293.684h393.888v-139.367h-542.209v947.854h542.209v-139.367zM5786.316 383.845l345.693-418.725h-222.832l-280.759 402.297h-26.628v-402.297h-168.097v982.579h173.703c129.713 0 261.45-24.292 319.144-73.187 63.533-54.268 95.377-125.976 95.377-214.968 0-69.528-19.854-129.479-59.718-179.465-39.942-50.141-110.56-82.219-175.883-96.234zM5601.79 496.584h27.251c140.38 0 210.686 53.567 210.686 160.856 0 100.594-68.204 150.891-204.847 150.891h-33.090v-311.747zM884.71 953.46h173.625v-971.445h-173.625v971.445z" horiz-adv-x="6132" />
<glyph unicode="&#xe60a;" d="M136.294 209.070c-75.196 0-136.292-61.334-136.292-136.076 0-75.154 61.1-135.802 136.292-135.802 75.466 0 136.494 60.648 136.494 135.802-0.002 74.742-61.024 136.076-136.494 136.076zM0.156 612.070v-196.258c127.784 0 247.958-49.972 338.458-140.512 90.384-90.318 140.282-211.036 140.282-339.3h197.122c-0.002 372.82-303.282 676.070-675.862 676.070zM0.388 960v-196.356c455.782 0 826.756-371.334 826.756-827.644h196.856c0 564.47-459.254 1024-1023.612 1024z" />
<glyph unicode="&#xe60b;" d="M2940.388 340.695c-13.093-8.578-27.088-15.877-41.46-22.198-19.564-8.202-38.074-12.491-55.155-12.491-26.411 0-46.577 3.838-60.197 12.115-13.77 7.826-20.918 21.37-20.693 40.934 0 22.499 5.041 39.956 15.35 53.726 10.384 13.168 25.96 23.702 45.072 31.603 19.188 6.697 42.664 12.19 69.753 16.253 24.079 3.16 71.86 8.804 77.879 8.879 6.095 0.075 10.158 3.537 7.449-13.394-1.279-7.299-15.049-65.991-21.37-92.628-1.731-8.051-11.964-19.714-16.629-22.799zM3127.599 753.268c-40.181 23.251-103.087 35.065-189.018 35.065-42.514 0-85.254-3.612-128.219-10.534-31.453-4.966-34.688-5.794-54.252-10.233-40.181-9.105-46.427-50.941-46.427-50.941l-12.942-55.080c-7.299-35.29 12.039-33.861 20.693-31.077 17.532 5.493 27.088 10.911 62.981 19.338 34.237 8.127 70.355 14.146 99.249 13.92 42.363 0 74.569-4.816 96.014-14.071 21.37-9.707 32.055-26.186 32.055-49.813 0-5.643 0.15-10.911-1.806-15.576-1.731-4.364-5.117-8.503-15.2-9.932-60.498-3.762-103.839-9.406-156.060-17.307-51.619-7.6-96.616-20.542-134.389-38.375-40.181-18.51-70.28-43.266-90.972-74.719-20.241-31.453-30.324-69.678-30.324-114.675 0-42.439 14.673-77.052 43.116-104.065 28.894-26.562 66.216-39.805 111.665-39.805 28.217 0.226 50.49 2.333 66.367 6.546 15.726 4.063 32.807 9.932 51.017 18.059 13.544 5.869 28.217 14.372 43.567 25.057 15.35 10.61 26.11 18.285 39.88 27.615l0.451-0.828-3.913-17.683c0-0.15-0.15-0.226-0.15-0.527l0.075-0.301c-4.44-21.295 7.901-38.977 28.292-41.009l0.226-0.376h1.731l0.075-0.15c13.469 0 59.82 0 81.416 0.15h15.124c0.978 0 1.204 0.301 1.505 0.451 20.693 2.634 40.557 20.166 45.223 41.31l77.353 346.281c1.731 8.127 3.085 17.532 3.988 28.368 0.903 10.911 2.107 19.94 1.806 26.487 0.075 48.91-20.091 85.178-60.197 108.429M1798.382 780.657c-22.649 0-52.446-19.037-66.442-42.062 0 0-151.696-269.832-166.519-296.845-8.127-14.447-16.328-5.267-17.683 0.075-1.053 6.622-47.029 295.039-47.029 295.039-5.041 23.251-28.443 43.191-57.638 43.116l-94.584-0.226c-22.724 0-36.946-18.962-31.904-41.912 0 0 72.236-425.214 86.307-525.291 6.998-55.155-0.677-65.012-0.677-65.012l-93.756-169.679c-13.695-22.95-6.245-41.837 16.479-41.837l109.558 0.15c22.724 0 52.747 18.736 66.216 41.686l421.527 740.118c0 0 40.332 63.282 3.16 62.68-25.433-0.376-127.015 0-127.015 0M696.256 849.808c-13.093 26.712-32.807 48.308-58.015 64.636-26.11 16.78-56.434 28.292-91.8 35.14-35.667 6.622-77.202 9.857-124.908 10.384l-220.846-0.15c-22.95-0.376-45.373-19.037-50.716-41.912l-148.911-672.171c-5.117-23.025 9.255-41.987 31.979-41.987h105.871c22.875 0 45.599 18.435 50.64 41.987l36.494 163.058c4.891 22.799 27.465 41.761 50.415 41.761h30.249c129.423 0.075 229.801 27.615 301.961 82.545 71.935 54.929 107.978 127.617 107.827 217.686 0.15 39.579-6.396 72.612-20.241 99.024M467.81 630.241c-31.829-24.229-76.149-36.419-133.486-36.419h-25.885c-22.95 0-37.397 18.811-32.356 41.987l31.829 142.516c4.966 22.95 27.766 41.987 50.565 41.761l34.688 0.15c40.407 0 71.183-7.148 91.875-21.445 20.467-13.92 30.926-35.892 30.475-65.389 0.677-44.395-15.651-78.933-47.706-103.162M2617.207 847.401c-13.168 26.562-33.108 48.082-58.24 64.787-25.885 16.705-56.51 28.368-92.026 35.14-35.065 6.321-76.751 10.008-124.381 10.158l-221.373-0.15c-22.799-0.376-45.072-19.037-50.415-41.912l-148.761-672.472c-5.418-22.875 9.33-41.837 31.754-41.686l106.172 0.075c22.574-0.075 45.524 18.736 50.791 41.611l35.892 163.283c5.041 22.799 27.916 41.987 50.866 41.611h30.174c129.573 0 230.026 27.615 301.961 82.695 71.785 55.23 107.827 127.767 107.827 217.912-0.226 39.504-6.772 72.612-20.241 98.948M2388.836 627.457c-31.678-23.928-76.224-35.968-133.486-35.968h-26.261c-22.875-0.226-37.472 18.811-32.13 41.761l31.678 142.741c4.74 22.574 27.916 41.761 50.339 41.611l34.764 0.15c40.633-0.15 70.882-7.299 91.95-21.295 20.693-14.146 30.625-36.193 30.851-65.464 0.075-44.696-15.877-79.008-47.706-103.538M1019.061 341.222c-13.093-8.578-27.013-15.952-41.536-22.122-19.564-8.127-38.225-12.566-55.23-12.566-26.186 0-46.577 3.988-60.197 12.115-13.695 7.976-20.843 21.52-20.693 41.009 0 22.499 5.117 40.031 15.425 53.65 10.534 13.168 25.885 23.778 45.147 31.603 19.112 6.772 42.664 12.19 69.678 16.253 24.154 3.085 71.86 8.804 78.030 8.954 6.095 0 10.083 3.537 7.374-13.394-1.204-7.299-15.049-65.991-21.295-92.703-1.806-7.976-12.115-19.639-16.705-22.799zM1206.272 753.87c-40.181 23.251-102.936 34.989-188.942 34.989-42.664 0-85.329-3.461-128.144-10.384-31.603-4.966-34.688-5.869-54.252-10.233-40.407-9.105-46.502-50.866-46.502-50.866l-12.867-55.155c-7.374-35.29 12.039-33.861 20.617-31.077 17.532 5.493 27.088 10.911 62.906 19.413 34.162 8.051 70.43 14.071 99.249 13.845 42.363 0 74.569-4.816 95.938-14.071 21.445-9.707 31.979-26.186 31.979-49.813 0.15-5.568 0.301-10.986-1.655-15.576-1.806-4.364-5.117-8.503-15.35-9.857-60.347-3.838-103.764-9.481-156.060-17.457-51.543-7.449-96.616-20.392-134.389-38.3-40.106-18.51-70.129-43.342-90.897-74.719-20.241-31.453-30.399-69.602-30.399-114.675 0-42.514 14.673-77.202 43.116-104.14 28.819-26.562 66.216-39.73 111.665-39.73 28.368 0.226 50.49 2.333 66.442 6.546 15.576 4.063 32.807 9.857 50.941 18.059 13.544 5.869 28.142 14.372 43.567 25.057 15.425 10.61 26.186 18.209 39.956 27.615l0.376-0.903-3.838-17.608c0-0.075-0.226-0.226-0.226-0.527l0.15-0.226c-4.364-21.37 7.901-38.977 28.217-41.084l0.301-0.527h1.731l0.15-0.075c13.469 0 59.745 0 81.341 0.075h15.124c0.978 0 1.204 0.527 1.505 0.602 20.768 2.784 40.557 20.241 45.298 41.235l77.353 346.357c1.655 8.051 3.085 17.532 3.913 28.368 1.053 10.986 2.182 19.94 1.881 26.411 0.15 48.91-20.241 85.103-60.197 108.429M3492.316 951.917h-94.659c0 0-0.075 0-0.15 0h-0.075c-21.671 0-43.643-17.231-49.737-39.203-0.301-0.903-0.677-1.731-0.903-2.634 0 0-2.257-10.685-6.17-29.195l-130.025-611.899c-3.010-13.92-5.041-22.95-5.643-25.283l0.301-0.301c-4.515-21.37 7.901-39.053 28.217-41.009l0.301-0.376h98.196c21.52 0 43.417 17.006 49.813 38.676 0.301 1.053 0.752 2.032 0.978 3.085l141.838 666.377-0.226 0.075c4.816 22.724-9.33 41.686-32.055 41.686" horiz-adv-x="3525" />
<glyph unicode="&#xe60c;" d="M1217.737 960c-122.724 0-234.341-42.935-322.506-114.895 67.225-64.967 118.573-146.286 146.104-238.201h-42.535c-26.621 81.719-73.452 153.86-134.305 211.654-60.524-57.684-106.919-130.044-133.503-211.435h-42.571c27.422 91.442 77.932 172.833 144.647 237.546-87.946 71.267-199.090 115.332-321.086 115.332-282.775 0-512.018-229.243-512.018-512.018s229.243-512.018 512.018-512.018c121.996 0 233.139 44.028 321.086 115.332-66.752 64.749-117.225 146.104-144.647 237.546h42.571c26.584-81.391 72.979-153.751 133.503-211.435 60.889 57.83 107.684 129.935 134.305 211.654h42.535c-27.531-91.879-78.878-173.198-146.104-238.201 88.165-71.923 199.782-114.895 322.506-114.895 282.775 0 512.018 229.243 512.018 512.018s-229.243 512.018-512.018 512.018zM231.828 327.916l30.371 161.144-71.996-161.144h-48.835l-13.911 165.113-31.682-165.113h-51.53l44.246 228.515h82.557l9.905-138.711 62.746 138.711h84.559l-42.935-228.515h-53.496zM413.475 327.916l-6.591 10.561c-9.286-6.628-16.533-9.869-42.935-11.253-26.475-1.311-60.124 18.5-54.188 57.502 14.53 79.243 106.992 64.676 120.211 66.023 5.972 28.441-13.838 25.747-31.682 26.438-17.844 0.655-51.53-4.661-64.057-5.972l7.902 40.932c33.685 6.591 51.53 5.972 67.371 6.591 86.526 0 77.932-62.054 72.615-87.837l-20.466-103.023h-48.179zM622.834 381.412c-8.594-56.774-70.029-53.496-82.557-53.496-17.881 0-36.999 0-60.743 6.628l7.247 38.966c25.783-8.594 60.087-4.661 68.026-4.661 17.261 0 19.701 21.886 6.591 28.405-10.561 5.317-21.777 13.219-41.624 21.814-12.236 5.317-25.127 19.811-17.844 54.771 9.468 45.703 71.304 44.902 78.587 44.902 7.32 0 26.438 1.966 50.838-7.247l-11.872-38.31c-14.53 3.969-39.002 3.969-50.838 2.622-19.192-5.244-11.253-23.088-0.655-27.713 10.561-4.625 27.058-13.838 36.999-20.466 9.905-5.936 22.068-18.5 17.844-46.213zM712.018 336.474c-11.253-7.247-26.438-9.25-38.31-9.25-11.908 0-50.838 7.32-40.969 58.776l35.652 179.68h51.53l-10.561-50.146h27.713l-9.25-40.969h-26.438l-14.53-76.621c-2.622-14.53-1.311-27.749 28.441-23.125l-3.277-38.347zM779.353 412.476c-5.972-42.935 27.094-41.624 47.56-41.624s50.219 2.658 58.157 4.661l-7.939-39.002c-12.6-6.628-44.283-9.25-66.060-8.594-89.148 0-87.837 83.904-85.834 95.776 1.966 11.872 12.527 94.428 95.739 94.428 90.459 0 76.621-75.31 70.648-105.645v0h-112.273zM960.489 413.787l-15.878-85.87h-51.53l34.996 187.582h44.246l4.625-18.536c7.902 9.286 23.125 18.536 48.908 18.536l-13.219-49.527c-12.527 0-36.963 3.897-52.149-52.185zM1156.484 386.001l15.186-46.176c-17.152-7.975-34.341-11.908-62.746-11.908-53.496 0-111.617 47.597-85.179 143.991 19.483 71.085 80.59 97.087 116.242 95.776 42.28-1.566 57.465-15.841 70.648-30.371l-33.685-33.685c-13.219 7.939-22.469 9.213-39.621 9.213s-55.499-16.387-62.746-62.709c-8.631-54.843 29.060-81.901 81.901-64.13zM1285.217 327.916l-6.591 10.561c-9.25-6.628-16.497-9.869-42.935-11.253-26.402-1.275-60.087 18.5-54.152 57.502 14.53 79.243 106.992 64.676 120.211 66.023 5.936 28.441-13.875 25.747-31.719 26.438-17.844 0.655-51.53-4.661-64.057-5.972l7.902 40.932c33.685 6.591 51.53 5.972 67.334 6.591 86.526 0 77.968-62.054 72.688-87.837l-20.466-103.023h-48.216zM1421.524 414.806l-16.023-86.781-52.039 0.036 35.361 189.439h44.683l4.661-18.645c8.012 9.286 23.379 18.645 49.381 18.645l-13.984-49.345c-12.673 0-36.708 3.314-52.039-53.35zM1583.797 327.916l-6.628 15.186c-10.597-7.247-27.749-14.494-44.975-15.186-36.926 0-70.903 52.258-54.115 109.614 25.127 85.834 69.374 80.59 97.742 80.59 24.436 0 30.371-15.186 40.277-22.433l13.911 72.615h54.152l-44.902-240.386h-55.463zM823.599 481.121c-20.466 0-34.996-10.561-40.969-34.377h64.057c3.35 18.536-2.622 34.377-23.088 34.377zM377.131 407.851c-16.533-11.216-21.158-31.063-3.933-37.691 16.533-6.336 40.932 4.625 44.246 21.85l3.969 20.466c-8.594 1.311-27.749 6.591-44.283-4.625zM1530.92 427.661c-7.247-27.094 8.558-47.597 26.402-47.597 19.155 0.036 31.027 15.186 40.313 38.347 5.28 17.116 2.403 38.602-3.277 46.213-15.878 21.085-52.331 4.406-63.438-36.963zM1248.909 407.851c-16.533-11.216-21.158-31.063-3.933-37.691 16.533-6.336 40.896 4.625 44.246 21.85l3.933 20.466c-8.558 1.311-27.713 6.591-44.246-4.625z" horiz-adv-x="1730" />
<glyph unicode="&#xe60d;" d="M832 832h-640c-105.6 0-192-86.4-192-192v-384c0-105.6 86.4-192 192-192h640c105.6 0 192 86.4 192 192v384c0 105.6-86.4 192-192 192zM384 192v512l320-256-320-256z" />
<glyph unicode="&#xe60e;" d="M570.802 724.53v-550.966c131.108 25.332 230.079 138.958 230.079 275.509s-98.919 250.073-230.079 275.457zM229.87 449.126c0-133.672 94.994-244.996 221.967-273.416v546.779c-126.921-28.472-221.967-139.796-221.967-273.363zM1015.783 960h-495.487c-287.338 0-520.243-229.242-520.243-511.974 0-282.836 232.906-512.026 520.243-512.026h495.487c287.338 0 520.296 229.19 520.296 512.026 0 282.732-232.958 511.974-520.296 511.974zM520.191 45.701c-225.683 0-408.763 180.044-408.763 402.22 0 222.072 183.027 402.168 408.763 402.168s408.763-180.096 408.763-402.168c-0.052-222.176-183.132-402.22-408.763-402.22z" horiz-adv-x="1536" />
<glyph unicode="&#xe60f;" d="M767.903 704.033c0-141.367-114.601-255.967-255.967-255.967s-255.967 114.601-255.967 255.967c0 141.367 114.601 255.967 255.967 255.967 141.367 0 255.967-114.601 255.967-255.967zM511.935 370.559c280.978 0 509.069-194.157 512-434.558h-1024c2.996 240.401 231.152 434.558 512 434.558v0z" />
<glyph unicode="&#xe610;" d="M603.892 520.755c92.611-164.847-10.228-321.423-73.993-362.935-65.723-42.75-276.076-115.704-373.722 71.276-44.468-29.725-95.688-63.925-156.217-104.518 81.944-114.146 215.747-188.579 367.090-188.579 249.308 0 451.351 202.083 451.351 451.351 0 84.061-23.013 162.609-62.966 229.971-58.771-37.436-108.233-68.999-151.542-96.567zM726.429 960c-249.228 0-451.431-202.123-451.431-451.351 0-83.982 23.013-162.609 62.966-229.971 58.771 37.476 108.313 69.039 151.542 96.607-92.532 164.847 10.228 321.423 73.993 362.935 65.763 42.75 276.076 115.704 373.722-71.276 44.548 29.725 95.688 63.965 156.297 104.518-81.984 114.146-215.787 188.539-367.090 188.539z" horiz-adv-x="1093" />
<glyph unicode="&#xe611;" d="M268.902 517.349c-75.377 28.658-91.894 39.855-91.894 66.368 0 28.829 27.714 41.013 64.137 41.013 44.274 0 92.966-9.953 137.24-28.744l9.953 132.692c-43.244 13.385-98.543 23.295-161.736 23.295-126.043 0-226.688-59.718-226.688-184.86 0-81.898 35.307-129.475 138.269-170.445 79.624-32.047 95.24-44.145 95.24-71.902 0-29.902-25.569-43.158-65.338-43.158-51.953 0-110.598 14.372-153.757 36.552l-7.679-146.077c55.342-19.863 121.71-26.556 175.979-26.556 136.124 0 226.817 68.556 226.817 200.347 0.043 98.415-55.385 139.299-140.543 171.475zM765.051 284.827c-56.372 0-70.872 35.479-70.872 89.577v231.493h116.304v130.547h-116.304v191.509l-190.308-59.89v-131.706h-88.633v-130.547h88.633v-246.809c0-138.355 54.227-207.082 203.607-207.082 39.898 0 80.782 4.505 109.697 12.27l-5.62 128.359c-14.415-5.448-31.017-7.722-46.505-7.722zM1022.713 608.042h-2.102c0 34.364-4.505 106.222-6.693 128.445h-175.979c0 0 5.448-110.77 5.448-159.505v-416.009h191.466v221.24c0 121.753 28.915 198.245 124.026 198.245 14.415 0 26.556 0 40.97-3.475v170.617c-10.039 3.26-22.137 4.419-32.004 4.419-72.073-0.086-125.142-57.702-145.134-143.975zM1217.526 160.972h191.552v575.515h-191.552v-575.515zM1215.424 810.619h195.885v149.381h-195.885v-149.381zM1825.473 751.931c-77.522 0-127.287-43.201-150.582-112.915h-2.188c-1.073 33.162-3.346 69.714-6.607 97.385h-179.24c3.26-32.090 5.448-122.954 5.448-164.954v-635.447h194.898v145.134c0 53.197-1.158 112.829-3.432 153.842h2.274c28.744-58.645 75.248-89.706 149.381-89.706 131.706 0 209.142 130.676 209.142 303.266 0.043 184.903-84.086 303.395-219.095 303.395zM1765.755 280.494c-55.299 0-87.389 66.453-87.389 163.795 0 96.269 33.162 166.026 84.043 166.026 55.385 0 83.056-67.655 83.056-161.693-0.129-96.141-28.786-168.128-79.71-168.128zM2591.339 450.939c0 196.014-86.316 301.078-255.56 301.078-169.415 0-275.681-120.594-275.681-299.877 0-187.048 106.265-306.655 314.292-306.655 67.526 0 128.359 13.385 170.531 29.902l-4.462 140.543c-48.692-18.833-91.936-27.628-149.467-27.628-99.53 0-141.616 53.111-144.962 106.222h343.207c1.030 14.243 2.102 37.538 2.102 56.415zM2242.77 507.396c3.26 68.556 39.898 126.043 94.082 126.043 59.761 0 85.201-47.448 85.201-126.043h-179.283z" horiz-adv-x="2591" />
<glyph unicode="&#xe615;" d="M512 960c0 0-146.286-254.431-146.286-509.526 0-256.905 146.286-514.474 146.286-514.474h146.286c0 0-146.286 259.561-146.286 517.25 0 254.31 146.286 506.75 146.286 506.75h-146.286zM877.774 960c0 0-146.286-254.431-146.286-509.526 0-256.905 146.286-514.474 146.286-514.474h146.286c0 0-146.286 259.561-146.286 517.25 0 254.31 146.286 506.75 146.286 506.75h-146.286zM1609.263 960c-282.795 0-512-229.265-512-512s229.265-512 512-512 511.879 229.205 511.879 512-229.084 512-511.879 512zM1609.263 82.225c-202.048 0-365.775 163.787-365.775 365.775 0 202.048 163.727 365.775 365.775 365.775s365.654-163.727 365.654-365.775c0-201.988-163.606-365.775-365.654-365.775zM146.285 960c0 0-146.286-254.431-146.286-509.526 0-256.905 146.286-514.474 146.286-514.474h146.406c0 0-146.406 259.561-146.406 517.25 0 254.31 146.406 506.75 146.406 506.75h-146.406z" horiz-adv-x="2121" />
<glyph unicode="&#xe616;" d="M778.189 512h-532.429c-28.314 0-30.72-22.938-30.72-51.2s2.406-51.2 30.72-51.2h532.429c28.314 0 30.771 22.938 30.771 51.2s-2.458 51.2-30.771 51.2z" />
<glyph unicode="&#xe617;" d="M778.189 512h-215.040v215.040c0 28.262-22.886 30.72-51.2 30.72-28.262 0-51.2-2.406-51.2-30.72v-215.040h-214.989c-28.314 0-30.72-22.938-30.72-51.2s2.406-51.2 30.72-51.2h214.989v-215.040c0-28.262 22.938-30.72 51.2-30.72 28.314 0 51.2 2.458 51.2 30.72v215.040h215.040c28.314 0 30.771 22.938 30.771 51.2s-2.458 51.2-30.771 51.2z" />
<glyph unicode="&#xe618;" d="M734.669 299.418l-141.21 161.382 141.21 161.382c24.013 24.013 24.013 62.925 0 86.886-24.013 23.962-62.925 23.962-86.886 0l-135.782-155.187-135.731 155.136c-24.013 24.013-62.925 24.013-86.886 0-23.962-24.013-23.962-62.925 0-86.886l141.158-161.331-141.21-161.382c-23.962-24.013-23.962-62.822 0-86.784 24.013-24.013 62.925-24.013 86.886 0l135.782 155.085 135.731-155.085c24.013-24.013 62.925-24.013 86.886 0s24.013 62.771 0.051 86.784z" />
<glyph unicode="&#xe619;" d="M792.73 534.374c-20.838-21.402-240.384-230.554-240.384-230.554-11.162-11.418-25.754-17.101-40.346-17.101-14.643 0-29.235 5.683-40.346 17.101 0 0-219.546 209.152-240.435 230.554-20.838 21.402-22.272 59.853 0 82.739 22.323 22.835 53.402 24.627 80.691 0l200.090-191.898 200.038 191.846c27.341 24.627 58.47 22.835 80.691 0 22.323-22.835 20.941-61.338 0-82.688z" />
<glyph unicode="&#xe61a;" d="M737.229 80.998c13.722-13.875 13.722-36.25 0-50.125s-35.891-13.875-49.613 0l-400.896 404.838c-13.722 13.875-13.722 36.301 0 50.125l400.896 404.89c13.722 13.875 35.891 13.875 49.613 0s13.722-36.25 0-50.125l-365.568-379.802 365.568-379.802z" />
<glyph unicode="&#xe61b;" d="M286.704 80.998c-13.722-13.875-13.722-36.25 0-50.125s35.891-13.875 49.613 0l400.896 404.838c13.722 13.875 13.722 36.301 0 50.125l-400.896 404.89c-13.722 13.875-35.891 13.875-49.613 0s-13.722-36.25 0-50.125l365.568-379.802-365.568-379.802z" />
<glyph unicode="&#xe61c;" d="M687.002 583.629c13.875 13.722 36.301 13.722 50.125 0 13.875-13.722 13.875-35.891 0-49.613l-200.038-196.096c-13.875-13.722-36.301-13.722-50.125 0l-200.090 196.096c-13.824 13.722-13.824 35.891 0 49.613 13.875 13.722 36.25 13.722 50.125 0l175.002-160.768 175.002 160.768z" />
<glyph unicode="&#xe61d;" d="M819.2 512h-614.4c-28.262 0-51.2-22.938-51.2-51.2s22.938-51.2 51.2-51.2h614.4c28.314 0 51.2 22.938 51.2 51.2s-22.886 51.2-51.2 51.2zM204.8 614.4h614.4c28.314 0 51.2 22.938 51.2 51.2s-22.886 51.2-51.2 51.2h-614.4c-28.262 0-51.2-22.938-51.2-51.2s22.938-51.2 51.2-51.2zM819.2 307.2h-614.4c-28.262 0-51.2-22.886-51.2-51.2s22.938-51.2 51.2-51.2h614.4c28.314 0 51.2 22.886 51.2 51.2s-22.886 51.2-51.2 51.2z" />
<glyph unicode="&#xe61e;" d="M798.72 41.165c-39.731-18.944-75.776-32.307-107.981-39.936-32.256-7.578-67.174-11.469-104.602-11.469-42.547 0-80.128 5.478-112.896 16.333-32.666 10.906-60.518 26.419-83.661 46.438-23.091 20.224-39.117 41.574-48.026 64.256-8.96 22.682-13.414 55.552-13.414 98.611v330.445h-102.861v133.325c36.557 12.032 67.942 29.184 93.952 51.661 26.112 22.426 47.002 49.408 62.822 80.896 15.77 31.488 26.573 71.475 32.563 120.115h132.352v-238.131h220.928v-147.866h-220.928v-241.613c0-54.579 2.867-89.651 8.653-105.216 5.632-15.462 16.282-27.853 31.795-37.12 20.685-12.493 44.186-18.739 70.707-18.739 47.155 0 94.003 15.514 140.595 46.49v-148.48z" />
<glyph unicode="&#xe61f;" d="M441.139 295.526c-26.88-140.954-59.699-276.122-156.979-346.726-30.003 213.094 44.083 373.094 78.49 542.976-58.675 98.816 7.066 297.574 130.867 248.576 152.32-60.262-131.891-367.258 58.88-405.606 199.219-40.038 280.525 345.6 157.030 470.989-178.483 181.146-519.578 4.198-477.594-255.027 10.189-63.386 75.674-82.637 26.163-170.086-114.227 25.293-148.326 115.405-143.923 235.52 7.066 196.557 176.64 334.182 346.726 353.229 215.142 24.115 417.024-78.95 444.826-281.293 31.386-228.352-97.024-475.699-327.117-457.882-62.31 4.762-88.474 35.635-137.37 65.331z" />
<glyph unicode="&#xe620;" d="M768 761.395h-146.227c-17.306 0-36.608-22.733-36.608-53.197v-105.574h182.835v-150.528h-182.835v-452.096h-172.646v452.045h-156.518v150.579h156.518v88.576c0 127.027 88.166 230.4 209.203 230.4h146.278v-160.205z" />
<glyph unicode="&#xe621;" d="M983.040 752.998c-34.714-15.411-71.936-25.754-111.053-30.464 39.936 23.91 70.605 61.798 84.992 106.906-37.325-22.118-78.694-38.246-122.675-46.899-35.277 37.581-85.504 61.030-141.107 61.030-106.752 0-193.28-86.528-193.28-193.229 0-15.155 1.69-29.901 5.018-44.032-160.614 8.038-303.053 84.992-398.336 201.933-16.691-28.518-26.266-61.747-26.266-97.178 0-67.072 34.15-126.208 86.016-160.87-31.693 1.024-61.491 9.677-87.552 24.166 0-0.819 0-1.587 0-2.406 0-93.645 66.662-171.725 155.034-189.542-16.179-4.403-33.28-6.758-50.944-6.758-12.442 0-24.525 1.178-36.352 3.43 24.576-76.8 96-132.659 180.531-134.195-66.15-51.866-149.453-82.739-240.026-82.739-15.616 0-30.976 0.922-46.080 2.714 85.504-54.835 187.085-86.835 296.294-86.835 355.482 0 549.888 294.502 549.888 549.939 0 8.346-0.154 16.691-0.563 24.986 37.786 27.238 70.502 61.286 96.461 100.045z" />
<glyph unicode="&#xe622;" d="M968.192 673.741c-51.507-295.526-339.2-545.792-425.728-602.931-86.579-57.139-165.478 22.886-194.15 83.456-32.768 68.966-131.021 443.238-156.774 474.163-25.702 31.078-102.912-30.925-102.912-30.925l-37.427 49.971c0 0 156.774 190.72 276.070 214.528 126.464 25.242 126.259-197.837 156.672-321.69 29.44-119.859 49.203-188.467 74.854-188.467 25.754 0 74.854 66.867 128.666 169.318 53.914 102.554-2.304 193.075-107.622 128.717 42.086 257.434 439.859 319.334 388.352 23.859z" />
<glyph unicode="&#xe623;" d="M101.888 686.643c0-76.442 25.549-131.686 75.878-164.096 41.216-26.573 89.088-30.566 113.971-30.566 6.042 0 10.854 0.256 14.234 0.461 0 0-7.885-51.354 30.208-102.195l-1.741 0.051c-65.997 0-281.293-13.824-281.293-190.822 0-180.070 197.734-189.184 237.363-189.184 3.123 0 4.915 0.051 4.915 0.051 0.461 0 3.277-0.102 8.090-0.102 25.446 0 91.238 3.174 152.371 32.922 79.258 38.451 119.501 105.421 119.501 198.912 0 90.368-61.235 144.128-105.984 183.45-27.29 23.962-50.893 44.646-50.893 64.768 0 20.48 17.203 35.891 39.014 55.398 35.226 31.539 68.506 76.442 68.506 161.331 0 74.65-9.677 124.723-69.325 156.467 6.246 3.174 28.211 5.478 39.117 7.014 32.307 4.403 79.565 9.421 79.565 35.789v5.069h-235.418c-2.355-0.051-238.080-8.806-238.080-224.717zM481.946 225.178c4.506-71.987-57.088-125.133-149.555-131.84-93.901-6.912-171.264 35.379-175.77 107.366-2.15 34.56 13.005 68.403 42.752 95.386 30.208 27.29 71.578 44.134 116.685 47.514 5.325 0.307 10.598 0.563 15.872 0.563 86.886 0 145.766-51.098 150.016-118.989zM420.454 735.949c23.091-81.254-11.776-166.195-67.328-181.862-6.4-1.792-13.005-2.714-19.661-2.714-50.944 0-101.376 51.507-120.064 122.47-10.445 39.885-9.626 74.701 2.355 108.237 11.776 32.922 32.922 55.245 59.546 62.72 6.4 1.843 13.056 2.714 19.712 2.714 61.44 0 100.966-25.498 125.44-111.565zM817.203 559.002v153.6h-97.28v-153.6h-153.6v-97.28h153.6v-153.6h97.28v153.6h153.6v97.28h-153.6z" />
<glyph unicode="&#xe624;" d="M259.891 816.64c0-54.426-40.192-98.509-106.291-98.509-62.208 0-102.4 44.083-102.4 98.509 0 55.706 41.523 98.509 105.011 98.509s102.4-42.803 103.68-98.509zM56.422 6.451v633.856h197.018v-633.856h-197.018zM371.354 438.118c0 79.053-2.611 145.152-5.222 202.189h171.11l9.114-88.166h3.891c25.907 41.523 89.446 102.4 195.738 102.4 129.587 0 226.816-86.835 226.816-273.51v-374.63h-197.018v351.283c0 81.664-28.57 137.421-99.84 137.421-54.426 0-86.784-37.581-101.069-73.882-5.222-12.954-6.502-31.078-6.502-49.254v-365.568h-197.018v431.718z" />
<glyph unicode="&#xe625;" d="M778.24 460.8c0-147.046-119.245-266.24-266.24-266.24-147.046 0-266.24 119.194-266.24 266.24 0 17.51 1.741 34.611 5.018 51.2h-179.098v-353.894c0-75.981 61.542-137.626 137.626-137.626h605.389c75.981 0 137.626 61.594 137.626 137.626v353.894h-179.046c3.226-16.589 4.966-33.69 4.966-51.2zM814.694 901.12h-605.389c-76.032 0-137.626-61.645-137.626-137.626v-149.094h222.925c48.179 68.096 127.59 112.64 217.395 112.64s169.216-44.544 217.395-112.64h222.925v149.094c0 75.981-61.645 137.626-137.626 137.626zM882.022 731.136c0-13.568-11.059-24.576-24.576-24.576h-73.677c-13.517 0-24.576 11.059-24.576 24.576v73.728c0 13.568 11.11 24.576 24.576 24.576h73.677c13.568 0 24.576-11.059 24.576-24.576v-73.728zM675.84 460.8c0 90.522-73.37 163.84-163.84 163.84s-163.84-73.318-163.84-163.84 73.37-163.84 163.84-163.84 163.84 73.318 163.84 163.84z" />
<glyph unicode="&#xe626;" d="M64 768h896v-192h-896zM64 512h896v-192h-896zM64 256h896v-192h-896z" />
<glyph unicode="&#xe627;" d="M204.312 710.296h95.176l-47.442 119.19zM759.068 522.189l12.446 30.212 11.177 27.235v-8.639-48.808h666.039v48.808 80.534h16.497c29.139 0 39.925-4.246 42.61-5.515 4.002-2.001 5.027-3.856 5.32-4.442 0.635-1.123 4.149-7.858 6.443-27.821 3.417-29.48 6.687-47.198 10.982-59.156l11.568-32.36h290.947v48.808 3.27c23.135-23.818 52.030-40.657 87.269-47.686 15.131-2.977 34.898-4.442 60.474-4.442h165.46l12.397 30.261 19.914 48.467h61.645l19.719-48.369 12.397-30.359h270.545v48.808 58.326l44.562-81.705 13.91-25.429h165.46v48.808 150.135 190.060 48.808h-165.509v-48.808-55.105l-40.755 77.801-13.715 26.112h-169.316v-48.808-183.031l-4.637 11.372-77.312 190.109-12.397 30.359h-299c-40.316 0-74.579-6.199-101.912-18.45-18.84-8.395-35.142-20.353-49.248-34.947v4.588 48.808h-168.584v-42.366c-7.272 6.443-14.887 12.69-23.672 17.766-29.139 16.79-72.383 24.599-135.98 24.599h-749.794l-12.202-30.798-58.961-148.378-55.739 147.597-11.958 31.579h-207.875v-48.808-154.283l-82.535 203.092h-147.645l-12.349-30.408-165.753-407.404h188.742l12.397 30.261 19.963 48.467h61.596l19.719-48.369 12.446-30.359h272.741v43.928l4.978-12.837 12.104-31.14h154.381zM2426.314 721.132v190.060h91.028l132.808-253.462v63.402 190.060h67.892v-190.060-150.135h-87.709l-136.224 249.557v-99.374-150.183h-52.713l-7.468 18.352-7.565 18.645v113.138zM1851.693 851.889c12.544 20.646 29.431 35.679 50.565 45.148 20.988 9.371 48.467 14.154 81.949 14.154h113.187v-60.571h-104.987c-31.823 0-55.202-8.688-70.089-25.917-12.251-14.301-18.352-40.12-18.352-77.752 0-9.176 0.244-17.766 0.927-25.771 2.831-35.777 12.056-60.23 27.674-73.164 13.373-10.982 34.215-16.448 62.377-16.448h59.741l36.411 89.612 77.361 190.011h81.949l127.097-312.667v-27.528h-72.334l-32.165 78.777h-127.097l-32.36-78.777h-132.71c-22.11 0-39.096 1.123-50.907 3.465-40.901 8.151-70.089 31.481-87.318 70.040-4.002 9.030-6.931 19.182-9.518 29.676v46.954 84.634c4.344 17.181 10.445 32.702 18.596 46.124zM2071.282 801.812l-25.38-62.231-24.014-59.205h-26.893c-24.599 0-31.433 5.369-31.481 5.418 0 0-7.468 7.663-9.957 39.193-0.635 6.98-0.781 14.203-0.781 21.964 0 36.362 6.736 46.075 6.736 46.173 6.54 7.516 23.428 8.688 32.897 8.688h78.874zM1713.321 911.192h70.967v-99.96c-4.93-21.817-7.663-45.441-7.663-71.065 0-7.565 0.146-14.887 0.635-22.013 0.976-18.108 3.368-35.142 7.028-51.151v-96.006h-64.281l-6.736 16.79v133.345 190.060zM1616.583 893.035c14.35-8.2 25.429-18.889 33.385-32.214 7.809-13.471 11.86-28.211 11.86-44.269 0-32.409-9.176-57.35-27.577-74.872-8.981-8.395-20.207-15.228-33.824-20.5-3.612-1.415-7.419-2.733-11.372-3.905 14.935-4.442 26.161-9.371 33.775-14.789 7.565-5.222 14.496-13.032 20.646-23.379 4.637-7.956 7.858-15.716 9.908-23.379 1.952-7.516 3.514-18.694 4.93-33.531 1.513-17.522 3.758-29.92 6.247-39.925v-11.275h-87.953c-2.88 8.005-5.613 23.965-8.444 48.271-2.343 19.963-6.296 35.24-12.202 45.782-5.808 10.591-14.789 18.84-26.698 24.795-14.398 7.028-35.386 10.494-62.67 10.494-0.439 0-0.927 0-1.367 0h-65.306v-129.342h-68.429v65.598 48.808h-12.544v35.728 77.508h6.199v48.808 63.695 0.049h179.664c53.299 0 90.637-6.003 111.771-18.157zM998.766 721.132v190.011h271.423v-63.695h-194.453v-68.673h175.076v-57.643-7.028h-175.076v-77.557h194.404v-65.55h-271.423v150.135zM347.662 570.997l-32.116 78.777h-127.146l-32.36-78.777h-83.511l138.421 340.194h81.949l115.383-283.87v-56.325h-60.62zM538.796 826.509v-255.512h-54.958l-7.468 18.352-19.279 47.442v274.401h125.291l100.252-265.42 105.475 265.42h125.047v-190.060-150.135h-81.705v150.135 105.377l-43.391-105.329-61.694-150.183h-88.294l-99.276 255.512zM1542.052 261.747c-6.101 2.245-15.863 3.417-29.090 3.417h-106.5v-100.545h104.84c18.694 0 31.872 2.88 39.535 8.59 11.275 8.444 16.888 23.184 16.888 44.172 0 23.086-8.59 37.875-25.673 44.367zM1518.819 213.72c-2.001-0.146-4.442-0.244-7.468-0.244h-56.032v2.929h57.692c2.294 0 4.295-0.049 5.955-0.098-0.049-0.976-0.098-1.806-0.146-2.587zM1329.736 19.365v272.644l-106.89-134.809zM1011.163 262.040h-200.163v-68.869h174.636v-64.818h-174.636v-77.801h206.508l18.986-0.879 83.658 107.476-108.989 142.374v-37.485zM1034.445 128.354v60.474l24.063-31.433-24.063-30.896v1.855zM1554.157 768.329c12.104 7.663 18.206 20.792 18.206 39.437 0 20.792-9.176 34.019-27.382 39.876-6.394 1.952-16.79 2.977-31.286 2.977h-113.821v-89.71h113.821c19.035 0 32.458 2.44 40.462 7.419zM1909.97 262.186c-5.711 1.952-15.082 3.026-28.065 3.026h-101.717v-90.003h101.717c17.083 0 29.090 2.489 36.216 7.468 10.884 7.663 16.302 20.841 16.302 39.535 0 20.841-8.2 34.166-24.453 39.974zM2252.654 721.132l-43.098 108.355-47.686-119.19h95.128zM3035.979 156.858c-10.201 25.38-27.626 45.685-51.102 59.546h47.1v48.808 60.718 48.808h-204.654c-21.28 0-36.313-0.586-47.295-1.806-32.067-3.612-54.226-15.179-70.577-28.358v30.164h-204.605c-21.378 0-36.411-0.586-47.344-1.806-32.75-3.661-55.202-15.619-71.651-29.285v31.091h-374.604v-35.044c-3.758 3.026-6.98 6.638-11.128 9.225-27.333 17.522-67.453 25.771-126.072 25.771h-215.196v-48.808-1.318c-17.376 19.377-38.461 33.531-63.402 41.438-19.719 6.003-46.71 8.737-85.415 8.737h-279.379l-58.228-77.459-53.64 77.508h-433.467v-48.808-341.122-48.808h425.609l14.594 20.158 45.733 63.060 47.1-63.549 14.643-19.67h222.176v48.808 70.333h74.823c25.624 0 46.173 2.245 62.865 6.882 18.986 5.32 36.509 14.74 52.323 27.918 5.076 4.246 9.127 9.518 13.52 14.398v-119.532-48.808h170.097v48.808 80.827h9.518c0.049 0 0.049 0 0.049 0 24.502 0 32.604-3.758 33.971-4.539 2.099-1.171 2.831-2.392 3.27-3.319 0.927-1.806 4.198-9.225 6.247-29.431 3.026-29.187 5.808-46.563 9.469-58.228l10.787-34.117h653.593c26.942 0 47.344 1.269 62.328 3.905 20.255 3.709 38.168 11.568 53.494 23.184v-27.089h206.655c26.942 0 47.344 1.269 62.28 3.905 39.828 7.272 70.919 30.456 90.198 67.16 12.397 23.379 18.742 49.833 18.742 78.484 0.244 24.892-4.344 48.857-13.422 71.26zM1642.158 165.741c-6.736-15.472-16.009-28.211-28.065-38.315-10.543-8.786-21.964-14.935-34.166-18.352-12.153-3.368-28.699-5.076-49.785-5.076h-123.632v-119.141h-148.817l-86.781 116.945-84.731-116.945h-351.908v341.122h359.083l77.605-112.162 84.243 112.162h254.975c32.848 0 56.374-2.099 70.626-6.443 23.721-7.516 42.414-23.135 56.13-46.758 10.152-17.473 15.375-36.802 15.375-57.74-0.049-17.376-3.465-33.873-10.152-49.296zM2726.339 94.286c-0.049 1.464-0.293 2.88-0.39 4.295 2.343-1.22 4.1-3.124 6.589-4.295h-6.199zM1938.132-15.192c-2.538 8.005-5.027 24.111-7.468 48.418-2.001 19.963-5.613 35.337-10.933 45.88-5.125 10.591-13.227 18.889-23.818 24.843-12.837 6.98-31.335 10.494-55.446 10.494-0.683 0-1.318 0-1.952 0h-58.326v-129.635h-72.48v341.122h166.388c47.686 0 81.022-6.052 99.911-18.157 12.934-8.2 22.794-18.986 29.822-32.36 3.27-6.345 5.662-12.983 7.419-19.816v-54.958c-3.709-18.010-10.64-33.141-21.427-44.66-10.201-10.738-23.623-18.84-40.511-24.502 13.422-4.49 23.428-9.371 30.212-14.838 6.931-5.222 13.032-13.129 18.547-23.428 4.051-8.005 7.077-15.765 8.932-23.379 1.659-7.565 3.075-18.791 4.295-33.58v-51.444h-73.164zM2343.388-15.192h-271.96l-6.003 16.595c-0.146 0.39-3.075 9.176-5.369 37.143v157.407c1.952 11.128 3.221 22.647 3.221 35.093 0 9.42-1.513 18.596-3.221 27.577v67.356h276.988v-63.939h-200.163v-68.869h174.685v-64.818h-174.685v-77.801h206.459v-65.745zM2392.197 94.286v5.076h-31.823v28.992 9.42c6.247-9.274 13.276-17.766 21.378-25.088 8.249-7.37 17.669-13.52 28.26-18.45h-17.815zM2609.833-12.019c-12.007-2.148-29.968-3.173-53.884-3.173h-157.895v60.669h143.399c23.135 0 38.363 2.489 46.026 7.516 11.177 7.175 16.644 17.864 16.644 32.214 0 16.497-6.492 28.602-19.328 36.313-7.321 4.344-19.231 6.492-35.288 6.492h-58.131c-35.581 0-61.206 7.028-76.922 21.036-9.81 8.834-17.425 19.963-23.038 33.336-4.002 9.762-6.052 20.207-7.126 30.896h1.611v31.286c2.636 16.497 7.321 32.214 16.595 46.466 12.593 19.133 32.799 30.31 60.522 33.483 9.274 1.025 23.33 1.464 41.829 1.464h155.796v-60.718h-140.617c-20.988-0.146-35.044-1.171-41.829-3.026-14.057-3.758-21.232-15.375-21.232-34.703 0.049-16.253 5.857-27.333 17.717-33.043 7.956-3.807 21.134-5.711 39.632-5.711h50.321c25.771 0 45.099-2.392 57.789-7.224 22.257-8.151 37.582-22.501 45.831-43 5.662-13.813 8.395-28.699 9.274-44.22h-5.759v-47.1c-1.952-5.955-3.612-12.007-6.54-17.473-12.202-23.33-30.7-37.29-55.398-41.78zM2987.708 29.663c-12.202-23.282-30.7-37.241-55.446-41.682-12.007-2.148-29.871-3.173-53.836-3.173h-157.846v54.519c0.586 2.099 1.562 4.002 2.099 6.15h141.251c23.086 0 38.412 2.489 46.026 7.516 11.177 7.175 16.644 17.864 16.644 32.214 0 16.497-6.492 28.602-19.328 36.313-7.321 4.344-19.182 6.492-35.288 6.492h-58.18c-35.581 0-61.157 7.028-76.873 21.036-9.762 8.834-17.425 19.963-22.989 33.336-4.393 10.738-6.54 22.208-7.37 34.019h2.929v35.825c3.026 13.618 7.663 26.698 15.521 38.754 12.544 19.133 32.799 30.31 60.474 33.483 9.322 1.025 23.379 1.464 41.829 1.464h155.845v-60.718h-140.568c-21.134-0.146-35.093-1.171-41.926-3.026-14.154-3.758-21.28-15.375-21.28-34.703 0-16.253 5.906-27.333 17.815-33.043 7.956-3.807 21.183-5.711 39.584-5.711h50.321c25.771 0 45.099-2.392 57.789-7.224 22.305-8.151 37.631-22.501 45.831-43 6.687-16.448 10.103-34.117 10.103-52.957 0-20.695-4.344-39.291-13.129-55.886z" horiz-adv-x="3050" />
<glyph unicode="&#xe628;" d="M1018.997 46.378l-320.934 320.934c41.708 62.108 64.057 135.195 64.057 211.66 0 101.737-39.565 197.433-111.547 269.416-71.983 71.918-167.678 111.612-269.416 111.612-101.867 0-197.563-39.629-269.481-111.612-71.983-71.983-111.612-167.678-111.612-269.416 0-101.802 39.565-197.498 111.612-269.481 71.918-71.983 167.613-111.612 269.481-111.612 77.245 0 151.112 22.933 213.739 65.486l320.609-320.609c10.784-10.849 30.729-8.446 44.502 5.262l53.792 53.857c13.708 13.773 15.982 33.653 5.197 44.502zM381.157 301.176c-153.191 0-277.861 124.606-277.861 277.796 0 153.126 124.67 277.861 277.861 277.861 153.061 0 277.731-124.67 277.731-277.861 0-153.191-124.67-277.796-277.731-277.796z" horiz-adv-x="1026" />
<glyph unicode="&#xe629;" d="M289.039 225.69h760.663l217.332 543.331h-970.252l-79.32 190.979h-217.463v-108.601h146.797l33.836-82.378h-0.325zM373.239 153.267c-59.994 0-108.536-48.672-108.536-108.666 0-60.059 48.542-108.601 108.536-108.601 60.059 0 108.731 48.542 108.731 108.601 0 59.994-48.672 108.666-108.731 108.666zM1057.25 44.601c0-60.015-48.652-108.666-108.666-108.666-60.015 0-108.666 48.652-108.666 108.666 0 60.015 48.652 108.666 108.666 108.666 60.015 0 108.666-48.652 108.666-108.666z" horiz-adv-x="1267" />
</font>
</defs>
</svg>
