<?xml version="1.0" encoding="utf-8"?>
<!-- Generator: Adobe Illustrator 19.0.1, SVG Export Plug-In . SVG Version: 6.00 Build 0)  -->
<!DOCTYPE svg PUBLIC "-//W3C//DTD SVG 1.1//EN" "http://www.w3.org/Graphics/SVG/1.1/DTD/svg11.dtd">
<svg version="1.1" id="Layer_1" xmlns:sketch="http://www.bohemiancoding.com/sketch/ns"
	 xmlns="http://www.w3.org/2000/svg" xmlns:xlink="http://www.w3.org/1999/xlink" x="0px" y="0px" viewBox="21.6 33.3 90.7 60.5"
	 style="enable-background:new 21.6 33.3 90.7 60.5;" xml:space="preserve">
<style type="text/css">
	.st0{fill:#346DA6;}
	.st1{fill:#FFFFFF;}
	.st2{fill:#CA4638;}
</style>
<title></title>
<g id="Europe">
	<g id="UK">
		<rect id="rect962-copy" x="21.6" y="33.3" class="st0" width="90.7" height="60.5"/>
		<path id="White_Diagonal" class="st1" d="M42.7,54.1L21.6,40.1v-6.8h10.1l26.1,17.4l0,0V33.3h18.1v17.4l26.1-17.4h10.1v6.8
			L91.3,54.1h21.1V72H89.8l22.6,15v6.8h-10.1L76.1,76.4v17.4H57.9V76.4L31.8,93.8H21.6V87l22.6-15H21.6V54.1H42.7z"/>
		<path id="Red_Diagonals-copy" class="st2" d="M81.1,72.6h6l25.2,17.1v4L81.1,72.6z M27.7,93.8l30.2-21.2h-6L21.6,93.8H27.7z
			 M106.3,33.3L76.1,54.5h6l30.2-21.2H106.3z M52.9,54.5h-6L21.6,37.4v-4L52.9,54.5z M73,33.3v24.2h39.3v12.1H73v24.2H61V69.6H21.6
			V57.5H61V33.3H73z"/>
	</g>
</g>
</svg>
